<?xml version="1.0" standalone="no"?>
<!DOCTYPE svg PUBLIC "-//W3C//DTD SVG 20010904//EN"
 "http://www.w3.org/TR/2001/REC-SVG-20010904/DTD/svg10.dtd">
<svg version="1.0" xmlns="http://www.w3.org/2000/svg"
 width="1563.000000pt" height="1563.000000pt" viewBox="0 0 1563.000000 1563.000000"
 preserveAspectRatio="xMidYMid meet">

<g transform="translate(0.000000,1563.000000) scale(0.100000,-0.100000)"
fill="#5386e4" stroke="none">
<path d="M7515 14280 c-1099 -58 -2109 -370 -3043 -942 -826 -506 -1571 -1253
-2089 -2098 -421 -687 -728 -1513 -848 -2288 -141 -906 -104 -1737 116 -2617
313 -1247 1054 -2427 2054 -3271 758 -640 1648 -1093 2600 -1324 265 -64 359
-82 625 -119 369 -51 447 -56 885 -56 438 0 516 5 885 56 266 37 360 55 625
119 1208 293 2333 956 3165 1865 778 852 1290 1829 1540 2945 52 229 102 564
131 880 17 177 17 812 1 985 -63 649 -175 1165 -370 1695 -270 736 -670 1410
-1186 2000 -1012 1156 -2416 1914 -3916 2114 -392 53 -837 74 -1175 56z
m-1481 -534 c86 -51 115 -169 63 -258 -34 -59 -88 -88 -164 -88 -73 0 -118 22
-158 79 -26 36 -30 52 -30 104 0 73 26 123 83 162 51 35 148 35 206 1z m3474
10 c58 -30 102 -103 102 -171 0 -68 -44 -141 -102 -171 -35 -18 -141 -18 -177
0 -129 67 -136 263 -11 335 42 25 147 29 188 7z m-1336 -386 c341 -24 636 -70
958 -150 572 -143 1067 -351 1565 -658 758 -466 1428 -1159 1870 -1932 455
-797 698 -1672 721 -2595 19 -740 -112 -1471 -388 -2165 -68 -172 -244 -538
-301 -628 l-28 -45 -121 7 c-308 18 -527 77 -796 212 l-163 83 -72 -23 c-40
-13 -108 -34 -152 -46 -44 -12 -102 -29 -128 -37 -62 -19 -117 -11 -216 31
-42 18 -112 48 -156 65 -44 18 -179 82 -300 141 -121 60 -265 127 -320 148
-201 80 -435 182 -620 271 -104 51 -217 103 -250 116 -132 53 -277 73 -410 55
-79 -10 -350 -74 -474 -111 -82 -25 -111 -24 -174 5 -29 13 -95 37 -147 54
-52 17 -153 50 -225 73 -71 23 -170 60 -220 82 -248 109 -506 216 -645 267
-58 21 -226 85 -375 143 -311 120 -360 134 -440 117 -63 -13 -251 -75 -340
-113 -33 -14 -172 -70 -310 -125 -433 -174 -559 -228 -640 -275 -47 -27 -134
-63 -210 -87 -334 -106 -386 -124 -491 -176 -99 -48 -126 -67 -226 -161 -62
-58 -160 -146 -218 -196 -111 -94 -179 -164 -180 -183 0 -13 46 -37 123 -63
29 -10 131 -52 227 -93 96 -42 233 -97 304 -124 118 -44 164 -69 281 -153 53
-38 174 -99 227 -114 37 -11 43 -17 46 -43 3 -25 -6 -38 -51 -82 -30 -28 -67
-54 -82 -58 -42 -11 -198 46 -610 224 -44 18 -118 50 -164 69 -86 35 -263 123
-386 192 -113 63 -98 67 -232 -58 -65 -61 -121 -111 -125 -111 -11 0 -51 65
-134 223 -352 663 -571 1429 -624 2179 -13 187 -13 592 0 773 39 544 177 1145
376 1637 158 392 308 676 547 1033 494 738 1191 1363 1991 1787 397 210 789
358 1246 472 303 74 604 122 920 145 170 12 566 13 742 1z m-5264 -1834 c65
-34 102 -96 102 -172 0 -59 -19 -103 -63 -141 -72 -63 -166 -66 -243 -8 -98
75 -86 251 21 312 47 27 140 31 183 9z m9760 0 c36 -19 78 -65 91 -99 15 -39
14 -111 -3 -150 -32 -79 -134 -129 -215 -108 -95 25 -146 90 -146 186 0 51 5
67 32 106 18 25 47 53 65 62 41 20 140 22 176 3z m-10806 -3116 c61 -41 83
-84 83 -160 0 -54 -5 -73 -24 -102 -78 -113 -245 -117 -318 -7 -30 46 -41 120
-24 171 14 41 64 95 106 115 45 20 136 12 177 -17z m11865 -6 c46 -36 83 -105
83 -154 -1 -70 -59 -155 -123 -179 -102 -39 -234 27 -253 125 -18 98 17 182
94 224 57 31 149 24 199 -16z m-7342 -1804 c54 -18 178 -66 275 -107 96 -41
236 -99 310 -129 74 -30 144 -59 155 -64 11 -5 65 -28 120 -50 55 -23 114 -47
130 -55 114 -50 244 -102 362 -144 76 -27 185 -68 243 -90 129 -51 235 -81
281 -81 47 0 205 42 454 120 113 36 140 40 205 38 65 -3 89 -10 180 -52 58
-26 188 -85 290 -131 102 -45 217 -97 255 -115 39 -18 102 -47 140 -65 39 -18
106 -49 149 -70 44 -20 112 -49 150 -65 39 -16 125 -54 191 -85 66 -31 145
-67 175 -80 30 -13 91 -40 135 -59 44 -19 109 -46 145 -59 36 -14 146 -62 245
-107 204 -93 299 -130 424 -164 125 -35 192 -44 426 -56 212 -11 284 -24 358
-61 45 -24 117 -86 117 -103 0 -7 -19 -37 -42 -69 l-42 -57 -55 0 c-74 0 -477
38 -642 60 -75 10 -166 38 -264 80 -27 12 -106 41 -175 64 -69 24 -150 55
-180 69 -30 14 -104 47 -165 72 -60 26 -130 57 -155 70 -25 13 -97 43 -160 68
-121 48 -244 99 -295 122 -17 7 -50 22 -75 33 -25 11 -83 43 -130 71 -84 52
-261 141 -330 166 -19 7 -84 34 -145 60 -99 42 -224 90 -415 161 -82 30 -125
30 -247 0 -337 -85 -517 -118 -598 -111 -121 11 -160 24 -292 103 -71 43 -157
89 -193 104 -151 62 -251 99 -341 127 -54 16 -146 48 -205 71 -60 23 -134 51
-164 62 -66 25 -94 37 -185 78 -38 18 -171 66 -295 108 -309 104 -292 105
-640 -15 -146 -51 -303 -106 -350 -123 -47 -18 -116 -42 -155 -55 -38 -13
-190 -71 -337 -130 -146 -58 -291 -111 -321 -117 -48 -10 -60 -9 -103 9 -27
12 -63 24 -80 27 -38 8 -67 38 -62 62 9 47 348 218 633 320 339 122 458 167
780 299 50 20 126 47 170 61 106 32 202 28 340 -16z m-4027 -882 c63 -42 95
-105 95 -188 0 -84 -32 -146 -96 -188 -37 -24 -52 -27 -124 -27 -75 0 -84 2
-125 31 -55 40 -98 119 -98 180 0 83 50 167 122 203 63 32 168 27 226 -11z
m10950 16 c82 -34 132 -111 132 -204 0 -128 -92 -220 -220 -220 -126 0 -219
92 -220 218 0 128 91 221 218 222 29 0 69 -7 90 -16z m-6238 -508 c146 -26
267 -54 302 -70 18 -9 60 -39 93 -66 66 -56 119 -84 250 -131 49 -18 84 -36
82 -43 -2 -7 -41 -13 -99 -16 -77 -4 -100 -9 -118 -25 -19 -17 -32 -19 -108
-15 -241 14 -633 -2 -777 -30 -27 -5 -117 -21 -200 -36 -238 -40 -377 -70
-560 -119 -93 -26 -239 -64 -324 -85 -84 -22 -183 -49 -220 -60 -119 -36 -306
-88 -457 -125 -194 -48 -257 -66 -268 -76 -6 -5 -17 -9 -25 -9 -10 1 -4 7 12
16 15 8 27 19 27 25 0 5 11 14 25 19 15 6 32 25 41 45 17 41 70 82 178 136 43
22 104 56 135 76 201 129 328 196 566 300 275 121 509 204 755 270 165 44 497
53 690 19z m2089 -591 c285 -54 773 -234 796 -293 17 -46 -79 -65 -400 -82
-203 -11 -503 -35 -615 -50 -41 -5 -113 -14 -160 -20 -149 -16 -242 -30 -380
-57 -74 -14 -171 -31 -215 -38 -44 -8 -134 -23 -200 -35 -66 -12 -142 -26
-170 -30 -27 -5 -102 -21 -165 -38 -63 -16 -151 -37 -195 -46 -44 -10 -115
-26 -158 -37 -89 -22 -123 -24 -133 -7 -17 27 127 124 343 232 99 49 157 84
293 176 126 85 170 105 430 193 150 50 373 102 610 140 64 11 245 6 319 -8z"/>
<path d="M6161 12845 c-15 -180 -21 -211 -50 -270 -36 -73 -92 -128 -165 -161
-53 -24 -152 -44 -220 -44 -70 0 -29 -13 69 -21 117 -10 184 -38 250 -104 68
-68 93 -130 108 -271 l13 -119 7 113 c9 146 35 209 118 286 68 63 122 84 245
96 46 4 87 10 90 12 2 3 -33 9 -78 13 -148 12 -246 62 -311 157 -43 64 -57
113 -67 238 -4 52 -8 86 -9 75z"/>
<path d="M8087 12203 c-7 -110 -38 -186 -101 -248 -73 -72 -141 -101 -296
-122 l-55 -7 86 -8 c123 -11 192 -39 260 -107 68 -68 98 -141 106 -253 3 -43
9 -78 13 -78 4 0 10 38 13 85 8 112 41 187 111 253 64 61 138 90 255 100 l86
8 -60 8 c-79 10 -172 34 -208 53 -48 25 -117 94 -142 143 -27 54 -45 133 -45
200 0 79 -17 58 -23 -27z"/>
<path d="M10680 11518 c0 -81 -19 -177 -44 -233 -65 -142 -222 -233 -404 -236
-82 -1 -115 -17 -37 -18 174 -3 291 -45 370 -133 26 -29 56 -70 67 -91 25 -51
48 -157 48 -229 0 -32 5 -58 10 -58 6 0 10 21 10 48 1 140 37 243 116 331 79
88 194 128 374 131 70 2 39 18 -36 19 -185 3 -336 89 -406 233 -29 59 -48 151
-48 236 0 28 -4 52 -10 52 -5 0 -10 -24 -10 -52z"/>
<path d="M8769 11440 c-34 -39 -94 -96 -133 -128 -67 -53 -137 -112 -397 -329
-59 -48 -152 -126 -208 -173 -57 -47 -155 -128 -219 -180 -64 -52 -117 -100
-119 -106 -2 -7 15 -30 39 -52 l43 -41 -30 -31 c-34 -36 -46 -37 -71 -8 -10
11 -81 75 -158 140 l-138 120 -32 -30 c-17 -16 -57 -46 -89 -67 -32 -20 -62
-45 -67 -55 -5 -10 -40 -40 -77 -66 -38 -26 -125 -95 -196 -154 -70 -58 -145
-118 -165 -135 -21 -16 -51 -51 -65 -78 -27 -47 -27 -49 -27 -243 0 -123 4
-203 11 -216 9 -17 7 -25 -13 -44 l-23 -24 -74 70 c-40 39 -82 70 -92 70 -11
0 -45 -24 -77 -53 -31 -28 -124 -108 -207 -177 -82 -68 -188 -158 -235 -200
-47 -42 -157 -137 -245 -210 -88 -74 -205 -173 -259 -220 -55 -47 -147 -125
-205 -173 -58 -49 -149 -128 -201 -176 -52 -48 -113 -99 -135 -113 -22 -14
-55 -42 -74 -61 l-34 -36 24 -28 c69 -80 972 -968 984 -968 13 0 133 113 605
570 215 208 729 697 883 839 70 65 127 122 127 127 0 4 -13 24 -30 42 -31 36
-38 57 -19 57 5 0 58 -46 117 -103 59 -57 133 -127 164 -157 65 -59 52 -61
143 17 27 24 55 43 62 43 7 0 22 -19 34 -42 11 -24 45 -68 75 -98 l53 -55 26
-345 c23 -297 30 -354 51 -413 13 -37 27 -93 30 -123 6 -50 23 -70 38 -45 4 5
-6 141 -20 303 -37 425 -41 490 -29 493 10 3 149 43 175 51 11 4 30 -30 74
-133 33 -76 88 -205 123 -288 87 -202 125 -305 119 -321 -3 -7 -23 -26 -45
-42 l-39 -29 74 -11 c89 -14 181 -54 251 -110 58 -46 63 -49 63 -28 0 16 -103
211 -124 235 -8 9 -29 48 -48 86 -19 39 -66 131 -105 205 -136 259 -252 485
-253 492 0 3 18 20 39 37 l39 31 55 -77 c31 -43 69 -94 86 -112 16 -19 42 -58
57 -85 28 -51 117 -189 153 -237 40 -53 160 -238 181 -280 33 -63 61 -99 80
-99 21 0 72 54 155 165 81 108 91 128 79 154 -5 11 -41 48 -80 83 -242 217
-654 602 -654 611 0 24 33 97 44 97 15 0 109 -63 171 -115 28 -23 78 -60 112
-83 34 -23 65 -46 68 -52 8 -12 128 -111 196 -160 43 -31 148 -112 222 -172
24 -19 29 -20 41 -8 22 25 60 140 49 151 -5 5 -43 29 -84 53 -41 23 -123 73
-184 111 -60 37 -136 83 -168 101 -32 18 -104 62 -160 97 -56 35 -118 72 -137
81 -19 9 -48 27 -64 39 l-29 24 17 44 c10 24 20 73 23 110 5 57 2 74 -20 123
-22 47 -36 62 -89 96 -35 22 -66 41 -71 42 -8 3 27 255 44 322 10 37 9 41 -18
62 -123 97 -349 303 -351 321 -2 14 7 28 28 43 26 19 33 20 48 8 15 -11 158
-137 302 -265 l47 -42 149 144 c82 79 176 170 209 202 87 83 260 246 356 333
45 41 121 111 168 155 47 45 121 111 164 149 42 37 77 73 77 80 0 12 -142 140
-256 231 -34 28 -127 104 -206 171 -79 66 -168 139 -198 161 -30 22 -73 60
-95 83 -47 50 -113 100 -131 100 -7 0 -41 -32 -75 -70z m193 -250 c51 -44 136
-113 188 -153 119 -92 305 -261 314 -283 4 -10 1 -23 -6 -29 -7 -7 -103 -95
-213 -196 -471 -435 -599 -548 -616 -549 -7 0 -212 174 -264 224 -42 40 -255
222 -320 274 -30 24 -55 51 -55 60 1 22 26 52 76 88 46 33 139 113 233 199 36
33 100 87 141 120 41 32 94 75 117 94 22 20 76 65 118 101 43 36 94 80 114 97
20 18 46 33 58 33 13 0 59 -32 115 -80z m-1496 -802 c81 -73 233 -205 383
-333 58 -50 124 -108 147 -130 23 -22 106 -96 185 -165 166 -145 269 -240 269
-250 0 -11 -109 -120 -194 -195 -158 -139 -182 -161 -229 -210 -60 -63 -129
-166 -152 -228 -13 -34 -25 -49 -42 -53 -43 -11 -50 9 -30 84 37 141 116 237
400 490 59 53 107 99 107 104 0 4 -57 58 -127 120 -69 62 -216 194 -327 293
-299 269 -459 405 -477 405 -9 0 -24 -9 -34 -20 -10 -11 -61 -55 -114 -97 -53
-43 -126 -104 -163 -137 l-68 -60 23 -24 c12 -13 83 -79 157 -145 74 -67 137
-124 140 -127 11 -12 239 -219 285 -259 28 -24 73 -65 100 -90 101 -92 92 -88
120 -61 14 13 25 27 25 31 0 7 -315 294 -455 414 -111 95 -265 247 -265 261 0
7 54 55 119 108 66 52 122 100 126 106 6 10 99 -57 164 -120 20 -19 52 -46 71
-59 19 -13 54 -42 76 -65 23 -23 72 -69 110 -103 88 -79 299 -268 347 -311 20
-18 37 -39 37 -46 0 -8 -55 -65 -122 -127 -68 -62 -155 -144 -194 -182 l-71
-69 -39 34 c-22 18 -44 38 -50 43 -15 13 -260 236 -428 390 -72 66 -183 166
-246 221 -146 129 -184 169 -177 187 3 8 99 92 213 188 233 195 302 249 319
249 6 0 43 -28 81 -62z m379 -18 c4 -6 25 -22 47 -36 49 -31 160 -131 172
-156 7 -14 3 -25 -14 -43 -13 -14 -29 -25 -36 -25 -15 0 -110 78 -189 155
l-56 55 17 30 c18 30 47 39 59 20z m-1062 -482 c52 -36 224 -185 246 -213 19
-25 19 -59 -1 -53 -15 5 -181 151 -235 207 -29 30 -53 61 -53 68 0 18 7 17 43
-9z m134 -260 c65 -65 73 -77 73 -110 0 -21 -4 -38 -8 -38 -11 0 -153 125
-163 142 -10 19 1 78 14 78 7 0 44 -33 84 -72z m327 -137 c176 -157 270 -256
262 -276 -5 -15 -16 -9 -64 36 -32 30 -115 106 -186 169 -123 110 -146 136
-146 159 0 25 28 6 134 -88z m-460 23 c89 -75 186 -174 186 -189 0 -20 -27
-55 -43 -55 -18 0 -227 197 -227 214 0 10 39 56 48 56 2 0 18 -12 36 -26z
m356 -54 c-36 -51 -112 -112 -124 -100 -8 8 8 30 56 76 68 66 108 80 68 24z
m-636 -55 c19 -19 65 -61 103 -93 37 -32 121 -108 185 -168 64 -60 171 -158
237 -219 66 -60 120 -114 121 -119 0 -5 -24 -32 -53 -60 -29 -28 -102 -98
-162 -156 -142 -137 -172 -161 -192 -153 -8 3 -75 65 -147 137 -73 72 -223
216 -334 320 -111 104 -202 194 -202 201 0 17 148 153 252 231 31 24 60 49 65
56 11 19 65 57 80 58 7 0 28 -16 47 -35z m802 -56 c8 -14 -94 -118 -124 -126
-43 -10 -36 7 28 72 64 65 83 75 96 54z m149 -189 l79 -80 -2 -67 c-2 -82 -11
-141 -21 -148 -5 -2 -19 7 -32 21 -21 22 -24 34 -21 88 l2 63 -75 76 c-76 76
-85 93 -63 115 26 26 54 11 133 -68z m1033 44 c33 -23 24 -35 -37 -50 -142
-37 -338 -219 -422 -391 -16 -34 -34 -65 -39 -68 -21 -13 -21 47 -1 113 46
153 206 317 377 387 70 29 92 30 122 9z m-1310 -31 c21 -21 70 -68 110 -105
40 -37 72 -71 72 -75 0 -5 -16 -20 -35 -36 l-34 -27 -67 60 c-36 33 -69 60
-74 60 -11 0 -60 74 -60 92 0 14 36 68 46 68 3 0 22 -17 42 -37z m501 -76 l33
-35 -16 -99 c-22 -128 -39 -203 -47 -203 -4 0 -12 7 -19 15 -13 15 -13 20 6
226 l7 77 -43 45 c-50 55 -45 81 8 38 20 -16 52 -45 71 -64z m873 -44 c26 -23
23 -30 -20 -37 -47 -7 -146 -70 -218 -138 -101 -95 -174 -242 -174 -348 0 -48
-2 -51 -22 -48 -17 2 -27 14 -37 43 -32 96 41 264 171 394 124 123 250 180
300 134z m-2535 -160 c43 -43 118 -114 166 -158 48 -44 127 -118 177 -165 49
-47 127 -119 173 -160 94 -83 101 -93 87 -120 -5 -10 -101 -103 -212 -206
-112 -104 -283 -264 -380 -357 -104 -99 -183 -167 -192 -165 -9 2 -100 86
-203 188 -104 102 -263 258 -355 347 -104 100 -168 169 -168 181 0 11 17 32
38 48 40 30 111 90 202 169 31 28 92 79 135 115 44 36 122 103 174 151 156
139 244 209 262 209 9 0 52 -35 96 -77z m2501 -60 c4 -57 -27 -114 -99 -185
-59 -57 -107 -78 -145 -64 -24 9 -12 96 21 152 36 61 149 146 190 142 28 -3
30 -6 33 -45z"/>
<path d="M8795 11153 c-16 -14 -48 -42 -70 -62 -22 -20 -63 -54 -90 -76 -28
-22 -59 -48 -70 -58 -11 -11 -30 -26 -42 -34 -13 -9 -23 -19 -23 -23 0 -5 23
-24 50 -44 61 -44 95 -73 177 -150 l62 -58 122 108 c68 60 145 130 172 155
l50 46 -39 28 c-21 16 -62 50 -90 75 -64 58 -151 120 -167 120 -7 0 -25 -12
-42 -27z"/>
<path d="M9158 10883 c-18 -25 -169 -158 -245 -217 -35 -27 -63 -55 -63 -62 0
-7 15 -23 33 -35 17 -12 58 -47 89 -77 l58 -56 22 20 c13 11 86 76 163 144 77
68 144 130 149 139 9 15 -38 64 -128 132 -45 34 -60 36 -78 12z"/>
<path d="M8305 10733 c-70 -60 -147 -124 -171 -143 -24 -19 -43 -38 -44 -42 0
-10 76 -80 152 -137 34 -27 76 -63 92 -80 17 -17 37 -31 45 -31 9 1 54 37 101
81 47 44 122 111 168 150 82 70 83 71 65 91 -10 11 -43 38 -74 59 -31 21 -59
44 -62 52 -6 16 -120 107 -135 107 -5 0 -66 -48 -137 -107z"/>
<path d="M8699 10472 c-46 -43 -121 -108 -167 -146 -46 -38 -82 -74 -80 -81 2
-6 42 -49 91 -95 l87 -82 68 58 c37 33 116 103 175 158 l108 99 -28 29 c-26
28 -134 117 -159 131 -6 3 -49 -29 -95 -71z"/>
<path d="M7343 9969 l-22 -22 77 -72 c42 -39 102 -93 132 -120 110 -96 206
-182 299 -267 l96 -87 23 21 c30 29 28 41 -15 74 -21 16 -65 53 -99 84 -33 30
-121 109 -194 175 -74 66 -162 146 -197 178 -34 31 -66 57 -71 57 -4 0 -17
-10 -29 -21z"/>
<path d="M6390 9303 c-30 -25 -82 -71 -115 -103 -33 -31 -72 -65 -87 -74 -27
-18 -37 -41 -19 -48 5 -1 77 -66 161 -143 84 -77 156 -140 161 -140 14 0 289
239 289 251 0 6 -28 35 -62 65 -35 30 -92 81 -128 115 -78 74 -136 124 -141
123 -2 0 -29 -21 -59 -46z"/>
<path d="M6726 8890 c-59 -55 -123 -112 -142 -127 l-35 -26 98 -99 c54 -54
101 -98 106 -98 24 0 297 242 297 263 0 7 -32 39 -71 72 -40 33 -83 72 -98 88
-14 15 -30 27 -37 27 -6 0 -59 -45 -118 -100z"/>
<path d="M5884 8852 c-17 -15 -83 -68 -145 -119 -63 -50 -131 -109 -152 -131
l-38 -39 165 -159 c91 -87 170 -160 176 -162 5 -2 47 32 92 76 46 44 106 97
133 117 59 44 135 119 135 132 0 5 -32 39 -72 74 -39 35 -113 103 -164 152
-51 48 -94 87 -96 87 -1 0 -17 -13 -34 -28z"/>
<path d="M5464 8492 c-10 -10 -50 -44 -89 -77 -124 -104 -155 -132 -155 -142
0 -12 329 -333 341 -333 5 0 19 10 31 23 13 12 70 62 126 112 56 49 102 95
102 103 0 7 -44 54 -97 105 -54 51 -126 122 -162 160 -35 37 -67 67 -70 67 -4
0 -16 -8 -27 -18z"/>
<path d="M6130 8348 c-96 -88 -176 -164 -178 -168 -3 -9 204 -205 218 -205 12
0 350 316 350 328 0 8 -196 200 -209 204 -3 1 -85 -70 -181 -159z"/>
<path d="M5810 8050 c-158 -140 -182 -167 -175 -189 6 -20 192 -201 206 -201
14 0 259 242 259 255 0 13 -175 182 -203 196 -7 4 -44 -22 -87 -61z"/>
<path d="M5153 11139 c-16 -219 -25 -263 -74 -365 -51 -105 -129 -184 -237
-242 -101 -54 -186 -71 -395 -79 -86 -3 -156 -7 -154 -9 1 -2 81 -8 177 -15
98 -6 207 -19 248 -30 164 -42 290 -144 360 -291 50 -104 61 -155 76 -376 l12
-177 7 151 c10 230 22 296 67 392 53 112 134 196 241 252 98 51 168 66 379 80
91 6 167 13 169 16 2 2 -34 4 -80 4 -118 0 -294 18 -359 36 -142 40 -279 154
-344 286 -45 90 -63 188 -74 393 l-7 150 -12 -176z"/>
<path d="M3327 9580 c-3 -14 -8 -56 -11 -93 -7 -88 -41 -163 -101 -221 -72
-71 -132 -95 -276 -110 -113 -13 -118 -14 -54 -15 161 -3 242 -29 325 -107 63
-59 98 -137 109 -248 9 -95 21 -125 21 -55 0 133 45 245 125 315 70 62 136 84
270 92 l110 6 -121 12 c-147 15 -197 36 -275 114 -67 66 -95 133 -107 253 -6
54 -11 74 -15 57z"/>
<path d="M11818 9490 c-4 -14 -10 -77 -13 -140 -12 -226 -39 -330 -116 -443
-78 -117 -176 -191 -314 -240 -86 -30 -129 -36 -375 -52 -127 -8 -167 -13
-114 -14 115 -2 339 -19 409 -32 158 -29 305 -127 396 -267 76 -116 103 -220
115 -447 7 -128 23 -192 24 -94 0 119 30 341 54 411 68 194 244 348 448 392
74 16 291 35 428 37 41 1 -22 8 -140 15 -339 22 -447 58 -585 198 -149 150
-185 262 -208 656 -2 36 -4 40 -9 20z"/>
<path d="M4880 8500 c0 -5 4 -10 9 -10 6 0 13 5 16 10 3 6 -1 10 -9 10 -9 0
-16 -4 -16 -10z"/>
<path d="M4188 7810 c-4 -8 -9 -48 -12 -88 -6 -92 -40 -167 -100 -226 -70 -68
-118 -86 -259 -100 l-122 -12 100 -7 c132 -9 194 -28 258 -80 73 -60 116 -146
124 -250 3 -43 9 -80 13 -82 4 -2 10 32 13 76 4 54 15 99 31 135 29 62 98 133
159 163 46 22 147 40 242 42 45 1 29 4 -67 14 -145 14 -193 32 -264 101 -63
61 -92 131 -102 240 -5 49 -11 82 -14 74z"/>
<path d="M10690 7104 c0 -249 -115 -378 -362 -407 l-103 -13 98 -11 c242 -29
367 -166 367 -405 0 -86 9 -67 21 43 23 223 134 333 364 362 l100 12 -107 12
c-121 14 -174 35 -242 94 -67 59 -103 141 -116 263 -6 55 -13 102 -15 105 -3
2 -5 -23 -5 -55z"/>
<path d="M10790 5750 c0 -6 7 -10 15 -10 8 0 15 2 15 4 0 2 -7 6 -15 10 -8 3
-15 1 -15 -4z"/>
</g>
</svg>
